<?xml version="1.0" encoding="UTF-8" standalone="no"?>
<svg
   xmlns:dc="http://purl.org/dc/elements/1.1/"
   xmlns:cc="http://creativecommons.org/ns#"
   xmlns:rdf="http://www.w3.org/1999/02/22-rdf-syntax-ns#"
   xmlns:svg="http://www.w3.org/2000/svg"
   xmlns="http://www.w3.org/2000/svg"
   xmlns:sodipodi="http://sodipodi.sourceforge.net/DTD/sodipodi-0.dtd"
   xmlns:inkscape="http://www.inkscape.org/namespaces/inkscape"
   width="241.68449mm"
   height="185.19002mm"
   viewBox="0 0 241.6845 185.19002"
   version="1.1"
   id="svg8"
   sodipodi:docname="Odin_on_Sleipnir.svg"
   inkscape:version="1.0.2 (e86c870879, 2021-01-15, custom)">
  <defs
     id="defs2" />
  <sodipodi:namedview
     id="base"
     pagecolor="#ffffff"
     bordercolor="#666666"
     borderopacity="1.0"
     inkscape:pageopacity="0.0"
     inkscape:pageshadow="2"
     inkscape:zoom="1.4"
     inkscape:cx="446.53036"
     inkscape:cy="548.35556"
     inkscape:document-units="mm"
     inkscape:current-layer="g910"
     inkscape:document-rotation="0"
     showgrid="false"
     fit-margin-top="0"
     fit-margin-left="0"
     fit-margin-right="0"
     fit-margin-bottom="0"
     inkscape:window-width="3838"
     inkscape:window-height="2125"
     inkscape:window-x="0"
     inkscape:window-y="33"
     inkscape:window-maximized="1" />
  <metadata
     id="metadata5">
    <rdf:RDF>
      <cc:Work
         rdf:about="">
        <dc:format>image/svg+xml</dc:format>
        <dc:type
           rdf:resource="http://purl.org/dc/dcmitype/StillImage" />
        <dc:title />
      </cc:Work>
    </rdf:RDF>
  </metadata>
  <g
     inkscape:label="Ebene 1"
     inkscape:groupmode="layer"
     id="layer1"
     transform="translate(-125.0184,-41.82901)">
    <g
       id="g910"
       transform="translate(143.57228,13.142837)">
      <path
         id="path912"
         style="fill:#0a0a0a;stroke-width:0.0832676"
         d="m 50.880859,28.708984 c -1.365183,-0.02718 -2.805433,0.256519 -3.804878,1.255443 -1.316035,0.994953 -2.628776,2.021395 -3.984184,2.947682 -1.648788,0.424672 -3.198474,1.186289 -4.851033,1.576036 -1.016619,0.148338 -2.034321,-0.01592 -2.917336,0.620481 -1.805423,1.026643 -4.008525,1.106813 -5.689015,2.383812 -1.992839,1.016582 -3.28723,2.924209 -4.962647,4.345774 -0.819649,0.901678 -1.661093,1.901177 -2.012625,3.079566 -0.234313,1.386578 -0.395343,2.858033 -0.05172,4.23066 0.492762,1.213712 1.19764,2.342249 1.609375,3.583984 0.936881,1.419807 2.758904,2.072716 3.400391,3.703125 0.468853,0.843968 1.626698,0.505254 2.379925,0.317692 1.170422,-0.408343 2.242432,-1.158285 3.530332,-1.155377 1.043265,-0.03278 2.091826,-0.150597 3.001852,-0.707237 0.840164,-0.372138 1.608167,-0.998845 2.46875,-1.259766 1.218884,0.03314 2.536045,-0.215841 3.623047,0.498047 1.668561,0.774116 3.17495,2.394206 5.170841,2.02852 0.909306,-0.130862 1.880792,-0.07142 2.711971,-0.550004 0.987849,-0.869337 1.922916,-2.029475 3.291016,-2.25 1.3816,-0.0509 2.1704,1.311964 2.949219,2.234375 0.678119,1.308887 1.084547,2.739098 1.412109,4.166015 0.07989,0.936103 0.04989,1.884758 0.384637,2.774574 0.24034,1.288828 -0.488807,2.486918 -0.492986,3.770622 0.158469,2.291478 -0.617831,4.52749 -0.632674,6.815879 -0.05702,1.197442 -0.723724,2.253875 -0.919133,3.408457 0.09505,0.981111 0.416269,2.01153 -0.06991,2.948465 -0.689528,2.169769 -1.462056,4.25824 -1.817565,6.519639 -0.797308,2.898297 -1.926524,5.709132 -2.430241,8.683625 -0.429502,1.559943 -0.696156,3.15886 -0.96694,4.706413 -0.575364,2.302684 -1.27452,4.581274 -2.321698,6.717424 -0.841661,2.12942 -0.661475,4.502 -1.1788,6.73498 -0.548711,2.26833 -0.497614,4.63148 -0.497131,6.94904 0.15452,1.22491 0.434723,2.59797 -0.09467,3.81268 0.11051,0.77213 0.556181,1.48394 0.481234,2.293 0.168651,2.01025 0.304454,4.1415 1.491576,5.85465 0.823135,1.29763 0.96867,2.88064 1.784227,4.18614 0.595598,1.06413 1.223482,2.10821 1.534885,3.2967 0.544633,1.26651 0.19619,2.76766 -0.7858,3.71709 -1.536276,1.60537 -3.268174,3.01767 -4.713154,4.71101 -1.388901,1.01265 -2.449883,2.3954 -3.662109,3.58399 -1.220512,0.62526 -1.558,2.23781 -2.865234,2.77148 -1.905384,1.32604 -3.294751,3.30773 -5.387916,4.38276 -0.670644,0.40204 -1.384169,0.86792 -1.643334,1.63677 -1.02264,1.20339 -2.493357,1.9525 -3.37423,3.28716 -0.990764,1.28765 -2.386565,2.19068 -3.28788,3.55073 -0.690418,0.86095 -1.66358,1.41366 -2.364481,2.27129 -1.061121,1.06618 -2.023403,2.2226 -3.176669,3.19422 -0.717385,0.73251 -1.2543,1.64894 -2.205088,2.12412 -1.218869,0.71155 -2.489493,1.37999 -3.418658,2.47522 -1.065296,1.11327 -2.292169,2.05314 -3.432468,3.07604 -1.175686,1.31378 -2.4251544,2.55952 -3.6038076,3.86888 -1.1589269,1.41323 -2.1328578,3.04003 -3.6671596,4.08024 -0.7996604,0.84983 -1.5508763,1.78309 -2.6172331,2.31001 -1.1759593,0.79978 -2.3274183,1.69804 -3.03763715,2.95611 -1.88195755,2.54432 -4.38457345,4.51316 -6.72093895,6.61067 -1.7914198,1.66586 -3.2158776,3.65838 -4.6244856,5.64286 -0.64394,0.7574 -0.958438,1.83866 -1.93463,2.27319 -1.215806,1.03539 -2.346643,2.22087 -3.011197,3.68747 -0.324915,0.63359 -0.971566,1.00498 -1.386719,1.54101 -0.193977,0.70091 0.628639,0.78339 1.121384,0.76035 3.111089,0.10813 6.219582,-0.26676 9.3316278,-0.0837 1.9000872,0.0623 3.8054874,-0.0755 5.6893823,-0.28304 0.640465,-0.0267 0.9095988,-0.64336 0.8302625,-1.21589 -0.033178,-1.2644 0.1219829,-2.52745 -0.09375,-3.78711 -0.062194,-0.90422 -0.2124805,-1.86666 0.029297,-2.74024 0.70154807,-1.15318 1.6661134,-2.24793 2.9003906,-2.8125 0.9542692,-0.16568 2.2742477,-0.38915 2.8261719,0.65039 0.1254128,0.28299 0.6869489,0.86501 0.8600722,0.25034 0.4705926,-0.69857 1.1036463,-1.41834 0.8908764,-2.32755 0.014831,-1.14435 -0.2619962,-2.38887 0.2138952,-3.4599 0.8378619,-1.36869 2.517179,-1.86757 3.4616713,-3.15054 2.1985088,-2.3755 4.5502888,-4.61703 7.1598368,-6.5374 1.515253,-1.19261 3.009881,-2.4126 4.312086,-3.84135 1.041407,-1.08684 2.26932,-1.95864 3.471967,-2.84625 2.233768,-1.9958 4.585854,-3.8513 6.765389,-5.90951 2.531626,-2.11491 4.112461,-5.15664 6.795847,-7.10948 2.739939,-2.12054 5.431734,-4.54318 7.889648,-7.09089 1.363312,-1.42709 2.936454,-2.77816 4.517435,-3.85321 1.650483,-1.35715 2.998935,-3.05659 4.766869,-4.27549 0.87101,-0.78957 1.373376,-1.94605 2.480156,-2.46467 0.745706,-0.45961 1.825927,-0.93881 2.55097,-0.19269 0.582204,0.60294 1.027735,1.36484 1.322265,2.14062 0.165515,1.2316 -1.136933,1.92344 -2.114685,2.28216 -1.715429,0.9128 -3.085947,2.341 -4.484735,3.66313 -1.065036,1.14906 -2.292248,2.12451 -3.578594,3.01327 -3.125193,2.49352 -5.686966,5.6135 -8.853236,8.06293 -1.446985,1.15702 -2.832472,2.39806 -4.03733,3.80567 -1.882401,1.76127 -3.319468,3.95969 -5.364567,5.5555 -1.639697,1.44728 -3.193889,3.02534 -4.364943,4.87863 -1.122227,1.17576 -2.496483,2.10579 -3.464557,3.42599 -2.249279,2.1883 -4.753196,4.10571 -6.845384,6.45589 -0.999952,0.98352 -1.883318,2.08366 -2.920039,3.02421 -0.763945,0.49587 -1.46874,1.06138 -2.006712,1.81043 -0.823528,1.11586 -2.119523,1.78419 -2.805267,3.01789 -0.684772,1.15301 -1.5224722,2.19457 -2.4289819,3.17603 -1.0668712,1.39734 -1.9599015,2.95224 -3.3353265,4.08141 -0.8690335,0.92716 -1.7276116,2.05517 -1.8350953,3.35624 0.3398864,0.75359 1.3080354,0.36305 1.940839,0.57339 1.4885532,0.26364 2.9774327,-0.0247 4.4680903,-0.0296 1.5522474,0.10778 3.1042154,0.0693 4.6574774,0.0773 1.814278,0.17853 3.589044,0.19508 5.420233,0.0507 1.264311,-0.0719 2.554743,-0.0299 3.788751,-0.39448 0.310695,-0.70253 -0.56454,-1.23544 -0.875017,-1.77946 -0.768659,-0.89597 -1.392477,-1.94709 -1.574745,-3.12361 -0.454794,-0.87599 -0.235286,-1.94209 -0.852665,-2.74592 -0.477451,-0.68537 -0.402427,-1.53876 -0.08297,-2.26847 0.282558,-1.1542 1.103405,-2.25695 2.344299,-2.43647 1.209089,-0.30748 2.532522,0.74369 3.644616,-0.0562 0.783294,-0.81824 0.715447,-2.02829 1.101562,-3.0293 1.716954,-1.21518 2.514946,-3.29317 4.182024,-4.5689 1.564113,-1.34024 3.249553,-2.53894 4.679307,-4.03101 0.884399,-0.89544 1.931033,-1.61846 2.861333,-2.44987 0.470358,-0.74274 0.797563,-1.70488 1.719391,-2.00544 1.80118,-1.1326 3.138945,-2.89546 4.807129,-4.27799 2.239108,-2.10633 4.176532,-4.53489 6.500816,-6.54179 0.875112,-0.31771 1.762077,-0.80009 2.095329,-1.7267 0.861675,-1.55639 2.293024,-2.66595 3.707424,-3.68351 2.345951,-2.08953 4.521519,-4.35509 6.72111,-6.59269 0.765088,-0.85792 2.381667,-1.36715 3.177678,-0.28108 0.53963,0.83334 0.81589,1.84971 1.652198,2.46272 0.405703,0.52792 1.022484,0.86135 1.696418,0.68106 0.353581,0.14842 -0.142061,0.97317 -0.03453,1.41364 0.04219,0.98123 1.03711,1.50455 1.600553,2.19914 1.164217,1.13479 2.195748,2.3879 3.269315,3.60444 1.062159,1.35781 1.895424,2.90393 3.23777,4.02508 1.087818,0.98148 2.092488,2.05996 2.901773,3.27898 1.165943,1.21122 2.418491,2.34222 3.462088,3.66464 0.920322,0.89906 1.996977,1.6311 2.868345,2.57928 0.983921,0.34795 2.155437,0.40193 2.914062,1.2168 0.538766,0.7591 1.440942,1.12438 1.892643,1.95731 1.01857,1.56869 2.872338,2.23609 4.556576,2.82784 2.043642,0.88378 4.074019,1.97224 6.344619,2.08805 0.94877,0.13687 1.71482,0.82827 2.68272,0.89633 2.4832,0.57745 4.96391,1.48266 7.55621,1.25614 1.80734,0.10673 3.5767,-0.53862 4.98119,-1.65988 1.50243,-1.23434 2.99768,-2.63488 3.8247,-4.42295 0.28913,-0.57732 -0.21144,-1.10534 -0.79602,-1.1249 -1.39627,-0.21124 -2.26939,-1.55798 -3.60683,-1.96225 -1.01654,-0.38984 -1.98292,-1.06939 -3.06877,-1.18071 -0.96727,0.43107 -1.7719,1.15709 -2.73032,1.61603 -0.89615,0.50788 -1.61026,1.37647 -2.60437,1.67929 -0.70918,0.22014 -1.38442,-0.54022 -1.04266,-1.20922 0.0801,-0.51892 0.63283,-1.32922 0.0176,-1.66552 -1.36286,-0.36398 -2.61114,0.57418 -3.90814,0.84581 -0.8866,0.38089 -1.82611,0.0991 -2.65789,-0.2707 -1.35362,-0.45976 -2.635373,-1.18666 -4.052586,-1.39528 -0.659232,-0.32326 -0.978102,-1.06902 -1.656739,-1.39828 -1.674395,-1.07979 -3.180335,-2.43691 -5.007323,-3.26774 -1.076375,-1.24603 -2.631364,-1.98493 -3.590106,-3.35226 -1.347915,-1.5782 -2.756097,-3.10465 -4.09521,-4.69221 -0.767684,-0.96727 -1.983147,-1.64182 -2.246325,-2.936 -0.299153,-0.9375 -1.094631,-1.59546 -1.544922,-2.46093 -0.494668,-0.84738 -1.536934,-1.1851 -1.88966,-2.13962 -0.357243,-0.99476 -1.385794,-1.52569 -1.696071,-2.54735 -0.663539,-1.7741 -1.872113,-3.2778 -2.690229,-4.98244 -0.560771,-1.26842 -1.591451,-2.61572 -1.09318,-4.06888 0.353846,-1.1513 2.23148,-1.59211 2.846051,-0.43555 1.218876,1.2617 1.373932,3.24908 2.841948,4.30135 0.84352,0.65415 1.452318,1.58673 1.583485,2.65764 0.412056,1.43736 1.548992,2.49579 2.24167,3.79405 0.902312,1.49873 2.067653,2.84854 3.061064,4.32509 0.971763,1.19234 2.274495,2.05376 3.392625,3.10232 3.143402,2.6227 6.72423,4.80887 10.307835,6.84511 2.461713,1.22138 5.107243,2.07989 7.473943,3.4878 2.28545,0.61425 4.68083,0.28741 7.01114,0.53743 1.45477,-0.0939 3.0757,-0.68047 4.39655,0.23776 1.73096,0.44964 3.35152,-0.65949 5.05463,-0.77682 1.19274,-0.0809 2.11452,-0.93645 3.24609,-1.24024 1.48633,-0.47666 2.86815,-1.20002 4.31445,-1.77344 1.20551,-0.66215 1.92383,-1.91371 2.73828,-2.97851 0.71875,-1.15436 1.74063,-2.46258 1.24805,-3.89844 -0.47068,-0.70262 -1.49199,-0.52867 -2.19141,-0.87305 -1.01114,-0.34474 -1.56872,-1.45903 -2.6863,-1.59309 -1.87098,-0.23287 -2.87385,-2.29117 -4.72581,-2.55144 -1.27318,0.074 -2.03497,1.28959 -2.79068,2.16597 -0.67511,1.161 -0.78213,2.61331 -1.72756,3.62864 -0.66623,0.98608 -1.77848,1.65448 -2.97199,1.73274 -0.88533,-0.67735 -1.14647,-1.79111 -1.50913,-2.7751 -0.10136,-0.55486 -0.31326,-1.55751 -1.09048,-1.24053 -0.77605,0.50681 -1.39751,1.23823 -2.28004,1.58928 -1.21352,0.72785 -2.6121,0.97908 -3.99547,1.13266 -1.57444,0.35067 -3.17745,0.0597 -4.7554,-0.0955 -1.16782,-0.10122 -2.18789,-0.68176 -3.2161,-1.17726 -1.235716,-0.40446 -2.430607,-0.91213 -3.522736,-1.61998 -1.505907,-0.75534 -2.990495,-1.6532 -4.021663,-3.01471 -1.817007,-1.68636 -3.641322,-3.44342 -4.763197,-5.69174 -0.744014,-1.35687 -1.331641,-2.80842 -2.300861,-4.02506 -0.508064,-0.68817 -0.469753,-1.55044 -0.625,-2.33985 -0.547979,-1.77003 -2.434444,-2.98622 -2.399257,-4.95155 0.06583,-1.10759 0.20604,-2.2092 0.135857,-3.32086 0.01644,-1.31933 0.735853,-2.5016 1.723117,-3.33396 0.841634,-0.81797 1.539935,-1.78425 2.046142,-2.83503 0.562289,-0.5604 1.347625,-0.8665 1.726465,-1.60599 0.802975,-0.98204 1.552807,-2.07565 2.585007,-2.81777 1.334193,-0.60706 2.815879,-0.80023 4.224112,-1.18207 3.501134,-0.86217 7.109354,-1.14495 10.681774,-1.27464 1.29191,-0.0834 2.61895,-0.13534 3.80129,-0.71936 1.06886,-0.32043 2.21756,-0.20564 3.30094,-0.50194 3.11908,-0.63974 6.28209,-1.03037 9.44823,-1.35037 2.39117,-0.0504 4.71274,-0.64027 7.05733,-1.03562 2.71594,-0.33323 5.45742,-0.43754 8.18697,-0.57014 1.82788,-0.2936 3.68447,-0.64103 5.54452,-0.88741 1.5244,-0.40404 3.08668,-0.87271 4.6457,-0.84027 1.84571,-0.047 3.69623,0.23264 5.498,0.58645 0.79465,0.35965 1.4859,0.9101 2.2874,1.25898 1.4313,0.9203 2.58572,2.2491 3.49859,3.66866 0.7286,1.47783 1.02543,3.12781 1.84205,4.56876 0.60749,1.27231 0.90879,2.67944 1.55239,3.92558 0.57307,0.67776 1.05693,1.74428 0.34419,2.50687 -1.70758,2.54724 -3.80222,4.79664 -6.05415,6.86814 -2.45179,2.11625 -4.21683,4.87674 -6.18437,7.42126 -1.94102,2.61782 -4.22756,4.98051 -5.9257,7.77399 -0.68004,0.78868 -1.52389,1.43376 -2.05727,2.34514 -0.96894,1.20481 -2.44193,1.94043 -3.2036,3.32296 -1.01743,1.42432 -2.25956,2.66126 -3.45546,3.92597 -0.92049,1.18742 -1.77807,2.42513 -2.50101,3.73852 -0.42681,0.68179 -1.38795,0.81597 -1.60178,1.67181 -0.24711,0.75679 -0.81319,1.28106 -1.34638,1.83842 -1.37895,1.80801 -2.99013,3.43027 -4.22492,5.35005 -1.44108,2.145 -2.8388,4.33151 -4.62337,6.2156 -1.41151,1.60624 -2.82097,3.21249 -4.29109,4.76326 -1.75588,2.11679 -3.62905,4.07654 -5.45268,6.12584 -1.77457,1.95491 -3.80249,3.73306 -6.21138,4.85854 -0.97419,0.64406 -1.98047,1.44785 -2.45703,2.52539 0.30303,0.66889 1.13895,0.97738 1.81812,1.1284 1.22397,0.0614 2.45979,-0.0738 3.67711,-0.20252 1.23159,-0.23761 2.49699,-0.40375 3.73696,-0.12542 0.87646,0.10628 1.75801,-0.0362 2.61244,0.21884 1.88353,0.19449 3.78347,8.8e-4 5.67297,0.0288 0.72421,0.0603 1.4031,-0.46494 1.32948,-1.23203 -0.0362,-1.67747 -1.21332,-3.2741 -0.60413,-4.96917 0.19482,-0.95187 0.9049,-1.84844 1.94455,-1.85862 0.53713,-0.0687 1.52703,0.0361 1.42928,-0.78378 0.0355,-1.06066 0.47893,-2.01502 0.9499,-2.9401 0.49971,-1.29919 0.99261,-2.65128 2.00968,-3.64648 1.02143,-1.25607 2.11159,-2.48795 2.84253,-3.94524 1.33188,-1.55796 2.91218,-2.88393 4.25122,-4.439 1.74932,-1.8524 3.28162,-3.89314 4.91483,-5.84173 1.28335,-1.32277 2.50778,-2.72149 3.36286,-4.36595 1.07854,-1.75263 2.78548,-2.96997 3.98602,-4.62728 0.99811,-1.20766 2.18838,-2.23141 3.13587,-3.48439 2.49541,-2.7965 4.5948,-5.92064 7.03473,-8.75734 1.28093,-0.93872 2.1225,-2.29827 3.17513,-3.46112 1.84014,-2.37457 3.47563,-4.96739 5.82592,-6.88923 0.74833,-0.65023 1.92333,-0.34837 2.35937,0.51172 0.52822,0.91059 0.78148,1.94899 1.28522,2.87319 0.57709,1.56165 0.65468,3.30006 0.43891,4.92995 -0.48525,1.49891 -1.78618,2.47615 -2.73903,3.65124 -0.51477,0.95116 -1.26048,1.71849 -1.99309,2.49641 -1.16611,1.42031 -2.5264,2.66845 -3.69904,4.0785 -0.85742,1.42458 -2.15504,2.48243 -3.12774,3.81904 -1.16121,1.51747 -2.40348,2.98676 -3.87308,4.21148 -0.58721,0.8594 -0.87813,1.99504 -1.84699,2.53454 -1.55075,1.54474 -2.91933,3.26155 -4.46559,4.81269 -2.1451,2.25904 -4.27266,4.54477 -6.09153,7.07996 -1.58467,1.9171 -3.21264,3.81465 -4.53551,5.92477 -1.06826,1.58167 -2.47938,2.87464 -3.82323,4.20932 -1.62271,1.78621 -2.69923,3.98513 -4.37415,5.7285 -0.82486,1.01371 -1.7828,1.98186 -2.3407,3.16798 -0.12086,0.65286 0.54218,1.00675 1.10652,0.96329 1.65653,0.28712 3.21773,1.16567 4.94502,0.94532 2.52873,-0.0679 5.12786,0.12233 7.58518,-0.58439 0.9073,-0.35452 1.47829,-1.21182 2.11328,-1.90429 0.0461,-1.52735 -0.24679,-3.20837 0.50005,-4.60094 0.74449,-1.11653 2.38477,-1.12729 3.06441,-2.28188 0.37372,-1.78825 -1.15129,-3.25992 -1.15235,-4.99609 0.022,-1.31577 1.36706,-1.93597 2.47389,-2.18862 0.96895,-0.27857 2.13691,-0.39764 2.80346,-1.22349 0.7653,-2.09358 2.86237,-3.22063 4.07895,-5.00663 0.9375,-1.28798 2.29744,-2.23012 3.06513,-3.63701 0.51807,-0.83512 1.65417,-1.18135 2.1899,-1.8837 0.56016,-0.58886 1.02037,-1.35162 1.75586,-1.82813 0.7166,-0.72756 1.12078,-1.699 1.86808,-2.41164 1.26654,-1.4329 2.90603,-2.5256 3.89427,-4.19915 0.78344,-1.2954 1.71586,-2.47723 2.63334,-3.67788 0.86726,-1.12656 1.63895,-2.33714 2.56234,-3.41199 0.6307,-0.71188 1.85274,-0.43611 2.18179,0.43786 0.44244,0.87164 0.47696,1.90024 1.03779,2.72034 0.95676,2.01857 1.32115,4.19074 2.34088,6.14034 1.25452,2.64808 1.79488,5.59785 3.28835,8.13581 0.50813,1.07177 0.59216,2.2914 1.24132,3.30752 0.81064,1.43603 0.89529,3.11754 1.41897,4.61283 0.46802,1.46436 0.79159,2.99575 1.59917,4.31909 0.91565,1.76688 1.18111,3.75511 1.41699,5.70175 0.25899,0.94619 0.24794,1.92796 0.18363,2.88887 0.22826,0.71412 0.26273,1.48114 -0.0775,2.16186 -0.12794,0.54851 -0.51108,1.49899 0.25421,1.71863 2.28884,1.02657 4.99666,0.67396 7.31457,0.60459 1.39983,-0.14602 2.88501,-0.28294 4.14258,-0.93555 0.26247,-0.62324 -0.52381,-1.02584 -0.70868,-1.5679 -0.57308,-0.99177 -0.83674,-2.12398 -1.51397,-3.05514 -0.4957,-1.22996 -0.72196,-2.55784 -1.18754,-3.80541 -0.72701,-2.08793 -2.07789,-3.89365 -2.8945,-5.9485 -0.97335,-2.45401 -1.84593,-4.92131 -3.11523,-7.23047 -0.17482,-1.2124 0.0319,-2.69117 -1.03218,-3.55191 -1.12252,-1.31084 -1.03913,-3.23474 -1.74789,-4.65587 -0.5048,-1.25405 -1.05689,-2.51303 -1.22554,-3.8604 -1.19658,-3.30258 -2.52792,-6.56197 -3.56893,-9.91713 -0.26918,-1.42648 -1.06438,-2.73167 -1.0136,-4.22015 -0.17635,-1.11397 -0.21782,-2.54697 0.90455,-3.19493 0.77882,-0.72509 1.03688,-1.93397 2.08718,-2.38101 0.60624,-0.45975 1.40953,-0.004 1.53196,0.69156 0.35941,1.29323 1.00793,2.47577 1.29883,3.79297 0.34291,1.19525 1.23434,2.11747 1.6171,3.30241 0.73719,1.92983 1.60408,3.80098 2.39827,5.70597 0.62755,1.24076 1.34993,2.43362 1.76906,3.77079 0.71873,2.0936 1.93958,3.9501 2.93405,5.91119 0.37054,1.12307 0.38455,2.3641 1.00871,3.40585 0.88633,2.09345 2.24773,3.95975 2.80208,6.20803 0.87893,2.92791 1.34312,5.96881 2.44143,8.83248 0.71629,2.24122 1.32173,4.51275 1.86857,6.80108 0.50644,1.71895 1.69721,3.17092 2.03846,4.95438 0.22978,0.78422 0.98499,1.36382 1.81412,1.219 0.78361,0.11061 1.31095,-0.50353 1.64799,-1.11704 1.29056,-1.53494 3.26294,-2.35482 4.37074,-4.06833 0.26386,0.005 0.68416,0.50973 0.81481,0.86325 0.27191,0.8691 -0.54641,1.48895 -1.17774,1.89844 -0.72095,0.62317 -1.63278,1.68889 -1.05859,2.67383 0.93795,0.51217 2.07344,0.0106 3.08456,0.27147 1.12757,0.21008 2.30445,0.41987 3.40598,-0.0271 1.2562,-0.35188 2.6477,-0.63567 3.61688,-1.56074 0.22083,-0.92562 -0.9283,-1.26852 -1.48796,-1.75404 -1.59251,-1.06619 -2.78478,-2.68354 -3.24446,-4.5526 -0.25448,-1.0619 -0.68793,-2.0652 -1.12982,-3.05157 -0.72976,-2.10819 -0.8399,-4.35428 -1.18205,-6.53619 -0.37041,-1.58854 -1.25532,-3.04884 -1.45951,-4.66692 0.0706,-1.11504 -0.30455,-2.18142 -0.84776,-3.13595 -0.4142,-1.14775 -0.31024,-2.3987 -0.56446,-3.57812 0.0213,-1.10677 1.41503,-1.31929 2.2539,-1.02728 0.48988,0.0751 1.35007,0.38759 1.57032,-0.23249 -0.0698,-1.10706 -0.73052,-2.07009 -1.16797,-3.0625 -0.84242,-1.29557 -1.95954,-2.47718 -2.27905,-4.03947 -0.54699,-1.49898 -2.01046,-2.44406 -2.44132,-3.99413 -0.43788,-1.22589 -1.00136,-2.43648 -1.38314,-3.66366 0.0597,-0.6679 0.11582,-1.41825 -0.34375,-1.97071 -0.13793,-0.8194 0.59253,-1.52347 0.29369,-2.3321 -0.13497,-1.44468 -0.70504,-2.8186 -0.64584,-4.28616 -0.0654,-0.93098 -0.0854,-1.86439 -0.0834,-2.79775 0.67079,-1.06502 2.16282,-0.8456 2.92795,-1.78347 0.35456,-0.45722 1.22982,-0.71294 0.9614,-1.40913 -0.0396,-0.94244 -0.47333,-1.77324 -0.99368,-2.52928 -0.55552,-0.88256 -1.0016,-2.00377 -0.46598,-3.00468 0.27747,-1.41499 -0.77077,-2.68294 -0.67387,-4.10165 -0.18039,-1.60033 -0.1183,-3.21315 -0.0136,-4.81242 -0.20336,-1.0184 -0.44305,-2.02778 -0.48353,-3.06986 -0.24651,-1.47182 -0.34896,-2.95275 -0.59007,-4.42338 -0.2418,-1.81318 0.0317,-3.70412 -0.67647,-5.43633 -0.71081,-1.95898 -0.75138,-4.07421 -1.28704,-6.06847 -0.42819,-0.78749 -0.87946,-1.57511 -0.97637,-2.48315 -0.79568,-3.39537 -1.99016,-6.71574 -3.25891,-9.97789 -0.98224,-2.40762 -2.8997,-4.27594 -3.99519,-6.6249 -0.7089,-0.84818 -1.74473,-1.36974 -2.36352,-2.30649 -0.87198,-0.83053 -1.93846,-1.436662 -2.91382,-2.125152 -1.33599,-0.458598 -2.59346,-1.109866 -3.83949,-1.767716 -1.07808,-0.659471 -1.77579,-2.014487 -3.1623,-2.084088 -1.12302,-0.372275 -2.20766,-0.886593 -3.40222,-0.977721 -2.47076,-0.610434 -4.88227,-1.514378 -7.43193,-1.744694 -1.1207,-0.158977 -2.14463,-0.707209 -3.29812,-0.683724 -1.46636,-0.108629 -2.86816,-0.605556 -4.34378,-0.66807 -1.8859,-0.160067 -3.70872,-0.74079 -5.61201,-0.753674 -2.74077,-0.09768 -5.41926,-0.80385 -8.07828,-1.218492 -2.50647,-0.608067 -5.10543,-0.164617 -7.65258,-0.345554 -3.23722,-0.02344 -6.44031,0.416361 -9.68906,0.593343 -1.33824,0.04502 -2.66291,-0.186016 -3.95117,-0.53125 0.94708,-1.020856 2.30922,-1.694271 2.94141,-2.976563 0.51315,-1.331213 0.64105,-2.807438 1.43252,-4.026037 0.4037,-0.998487 0.92188,-1.946733 1.10149,-2.972728 -0.0668,-3.271787 -0.21521,-6.547415 -0.26839,-9.815688 0.18995,-0.766267 0.36806,-1.534583 0.49609,-2.314453 0.74722,0.643551 1.46155,1.418144 1.54495,2.452741 0.21389,1.055127 0.3615,2.114533 0.65009,3.212653 0.20894,1.024709 1.20065,1.650514 1.31972,2.711323 0.20228,0.951362 0.50415,2.019656 1.31923,2.623283 1.13611,0.275973 2.30971,-0.138088 3.33162,-0.637726 1.65135,-0.468903 3.33131,-0.891324 4.83,-1.762406 1.54048,-0.758358 2.85853,-1.865893 4.01319,-3.123628 0.80893,-0.898521 1.84025,-1.543427 2.79218,-2.256183 1.39411,-1.371403 2.62143,-2.933868 3.6344,-4.601406 0.44287,-1.009516 0.9883,-2.020022 1.96665,-2.604015 0.95607,-0.715717 1.98029,-1.536828 2.25422,-2.762683 0.82779,-1.53294 3.12626,-3.750972 3.41192,-5.567317 0.20929,-1.303821 -0.89727,-1.598499 -2.02808,-2.347864 -1.50294,-1.261953 -3.37099,-1.931844 -5.14946,-2.694194 -0.89535,0.112987 -1.87849,-0.105015 -2.71153,0.253227 -1.25492,0.787431 -2.41178,-0.748441 -2.89966,0.737539 -0.30068,0.931951 0.0312,3.352473 -0.0754,4.327741 -0.0901,0.927166 -0.98242,2.763902 -0.3037,3.441258 0.59763,0.8782 0.13957,1.968595 0.30572,2.948002 0.0426,1.064422 0.30695,2.165527 -0.2094,3.161201 -0.56268,1.077702 -0.60791,2.416223 -1.50327,3.306865 -1.01769,1.049491 -2.52298,1.443101 -3.92898,1.615182 -1.13736,-0.03415 -2.28338,-0.135673 -3.40365,-0.336989 -0.8057,-0.185737 -1.73939,-0.745896 -1.61393,-1.690354 0.004,-1.042721 -0.47579,-1.997469 -0.48458,-3.043854 -0.0869,-1.865195 -0.98036,-3.632108 -1.73592,-5.340511 -0.20272,-0.580278 -1.32281,-2.259039 -1.79076,-2.629977 -0.7132,-0.582064 0.53949,-0.719046 1.49954,-0.401674 1.01351,0.577369 1.75233,1.557288 2.75781,2.160156 0.29262,0.217153 0.80323,0.256698 0.67383,-0.271484 -0.0598,-1.386826 -1.10821,-2.49058 -1.33921,-3.849332 -0.67175,-2.472847 0.0965,-5.104229 -0.7511,-7.551285 -0.63736,-2.310784 -0.53415,-4.963399 -2.15184,-6.889451 -0.4373,-0.905085 -1.58276,-0.848759 -2.18363,-1.584932 -0.63374,-0.617568 -1.28501,-1.370911 -2.24425,-1.384338 -0.71293,-0.226752 -1.46459,-0.189625 -2.14202,0.114908 -1.77813,0.433516 -3.67704,0.677064 -5.17909,1.813196 -0.86576,0.584501 -2.15477,1.055493 -2.23418,2.300983 -0.13441,1.041642 0.0389,2.330633 -0.96023,3.014626 -1.41137,0.836714 -2.79319,1.762383 -4.23458,2.492378 -1.40713,0.06867 -2.89629,0.440094 -4.02518,1.273247 0.27308,0.619166 1.12147,0.644318 1.69366,0.872215 1.19152,0.398975 2.44293,0.159461 3.65985,0.246926 0.67431,0.135716 1.28517,0.515579 1.84885,0.882411 0.47163,0.420455 0.0417,1.268724 -0.57931,1.164464 -1.66243,0.389456 -3.01472,1.515218 -4.49672,2.303556 -1.12413,0.804972 -2.18882,1.696243 -3.39586,2.378084 -1.03383,0.866753 -2.10315,1.851901 -3.516,1.977633 -0.87174,0.302854 -1.86874,0.08358 -2.45926,-0.644877 -0.94937,-0.907579 -1.69526,-2.017126 -2.69466,-2.867912 -0.43531,-0.561286 0.29207,-1.120419 0.0566,-1.705078 -0.0827,-0.886036 0.40855,-1.971795 -0.4375,-2.625 -0.91246,-0.755598 -2.15076,-1.086497 -3.31055,-1.146485 -1.37357,0.278083 -2.99861,-0.114571 -4.17188,0.875 -0.71537,0.892815 -1.89865,1.124447 -2.810541,1.738282 -1.132661,0.454749 -2.443727,0.498211 -3.424006,1.283393 -1.273923,0.525402 -2.590683,0.980634 -3.725191,1.777466 -1.207816,0.561042 -2.566715,1.421906 -3.925022,0.806328 -2.269861,-0.732357 -3.139768,-3.297015 -5.204183,-4.347446 -1.994008,-1.199642 -3.31737,-3.20335 -5.178496,-4.570232 -1.04463,-0.974562 -2.349744,-1.642299 -3.288535,-2.735789 C 74.118689,40.48082 73.02529,40.109605 72.169799,39.356271 70.485736,38.233607 68.6277,37.380982 66.776924,36.585272 65.753445,36.442899 64.941665,35.814605 64.191406,35.152344 63.498611,34.534946 62.508857,34.54272 61.787933,33.959608 c -1.648598,-1.072547 -3.113454,-2.398437 -4.446136,-3.840467 -1.806655,-0.964369 -3.883142,-1.378203 -5.892934,-1.425104 -0.189335,0.005 -0.378669,0.01 -0.568004,0.01495 z m 54.669921,23.984375 c 1.67076,1.473218 3.69192,2.462257 5.39435,3.887907 1.25495,1.136202 2.20523,2.664022 3.81073,3.369906 0.87343,0.586235 1.74823,1.261983 2.74023,1.601562 0.94854,-0.180141 1.5585,-1.070661 2.45118,-1.412109 0.93149,-0.551454 1.81372,-1.556722 2.97461,-1.462891 0.90818,0.306378 0.5595,1.434018 0.27879,2.086078 -0.46756,1.362296 -0.89533,2.796851 -0.86967,4.243589 0.20221,1.447084 0.82398,3.152998 -0.16498,4.451583 -0.73608,0.985002 -2.00569,1.229211 -3.12185,1.22296 -1.02077,-0.05089 -1.57278,-0.844959 -1.93216,-1.657546 -0.3451,-0.759758 -1.44965,-1.223213 0.0422,-2.624007 -0.1864,-1.115312 -1.09564,-1.964585 -2.12863,-2.331379 -1.06472,-0.478136 -2.39959,-1.106697 -3.46903,-0.297528 -0.69491,0.594022 -0.37691,1.743966 -0.10617,2.43546 0.52063,0.958138 0.54431,2.837663 1.68504,3.15773 0.99198,-1.032695 2.92776,0.777741 3.06598,2.087844 0.0428,1.156552 -0.98427,1.601956 -1.63508,2.410763 -1.66271,1.775219 -4.12621,2.401312 -5.9668,3.947266 -1.1324,0.607693 -1.99434,1.589271 -2.93358,2.422726 -0.76936,0.450114 -1.5748,1.033471 -2.51955,0.889774 -0.68381,-0.769245 -1.05421,-1.775702 -1.8689,-2.428506 -0.51687,-0.712532 -1.02999,-1.467752 -1.389549,-2.259782 -0.142062,-0.638086 -0.180441,-1.348285 -0.720062,-1.79804 -0.626416,-0.851629 -0.246513,-2.142761 -1.195009,-2.812435 -0.790676,-0.71271 -1.597916,-1.539883 -1.697841,-2.658094 -0.388197,-0.969426 -1.249478,-1.686038 -1.542697,-2.707206 -0.732578,-1.14674 -1.888601,-1.992537 -2.423722,-3.27169 -0.927842,-1.337466 -2.303301,-2.588567 -2.401549,-4.310726 -0.06024,-0.922809 0.673902,-1.649998 1.522353,-1.869635 1.56418,-0.755032 3.158091,-1.451286 4.780748,-2.060922 1.343938,-0.75221 2.680085,-1.806641 4.313238,-1.677964 1.06496,-0.137477 2.17629,0.09135 3.21594,-0.141559 0.52736,-0.224312 1.27099,-0.78357 1.81135,-0.433129 z M 64.910156,129.26562 c 1.444219,-0.15493 2.886325,1.59579 1.951172,2.89649 -0.655131,1.20709 -2.644953,1.6271 -3.44316,0.34365 -0.632872,-0.69208 -1.077181,-1.97983 -0.170121,-2.64443 0.487382,-0.34826 1.060992,-0.5687 1.662109,-0.59571 z m 16.111328,1.25 c 0.827766,0.21731 1.925516,0.49105 2.228317,1.35058 -0.267144,1.42543 -1.537094,2.45155 -2.820113,2.95021 -1.105289,0.18051 -1.497498,-1.13634 -1.732422,-1.96289 -0.304028,-0.76742 -0.08488,-1.83248 0.810956,-2.05629 0.471467,-0.21968 0.995437,-0.30692 1.513262,-0.28161 z m 89.613286,1.91602 c 0.71298,0.40725 1.50287,0.79505 2.35937,0.80078 1.0814,0.40638 1.84191,1.78573 1.15318,2.83679 -0.40433,0.88169 -0.69686,2.11491 -1.74498,2.39954 -1.34094,0.10751 -1.9835,-1.29391 -2.42773,-2.32031 -0.45291,-1.04083 -0.1577,-2.18794 -0.13867,-3.27539 0.19431,-0.22697 0.4617,-0.56634 0.79883,-0.44141 z m 18.14257,3.05274 c 1.00441,0.27298 2.05609,-0.1293 3.05274,0.20507 1.43193,1.08542 0.81196,3.47262 -0.7351,4.11667 -0.87051,0.48632 -2.23392,0.50852 -2.86646,-0.33737 -0.45653,-1.06928 -0.65434,-2.31028 -0.39844,-3.44727 0.14885,-0.37294 0.5634,-0.55647 0.94726,-0.5371 z m -116.173824,3.72265 c 1.101103,0.086 1.412916,1.57243 0.880413,2.39233 -0.806549,1.34063 -1.98591,2.40107 -3.256553,3.29219 -0.680942,0.62389 -1.743578,1.34202 -2.610188,0.62603 -0.735713,-0.39592 -1.065807,-1.43364 -0.46786,-2.09067 0.6744,-1.10458 1.774264,-1.72754 2.510096,-2.76125 0.784823,-0.78068 1.90521,-1.18652 2.944092,-1.45863 z m 107.369144,0.87891 c 0.52145,0.0583 0.63129,0.79531 0.91992,1.18359 0.54222,1.36263 1.14709,2.70771 1.59295,4.10431 0.44789,1.43898 -0.59529,2.73222 -1.43084,3.78827 -0.89638,0.96479 -1.82066,1.93014 -2.82743,2.76967 -0.65415,0.44392 -1.4125,-0.10083 -1.55337,-0.78956 -0.6586,-1.43171 -1.28462,-2.89595 -1.75592,-4.39613 -0.17452,-1.63943 1.1677,-2.8958 2.1796,-3.99867 0.8633,-0.97939 1.72716,-1.96331 2.71688,-2.81969 z m 20.45507,0.27929 c 0.54391,0.72418 0.25169,1.69437 0.31311,2.53541 -0.1635,0.61732 0.26038,1.05152 0.55018,1.531 0.50783,1.08266 0.633,2.27699 0.81045,3.40432 0.18133,2.26441 0.3906,4.53143 0.53156,6.79598 -0.10041,1.19054 0.43643,2.29228 0.45496,3.47434 0.20387,1.90671 0.82246,3.74215 0.92373,5.66477 0.13758,1.77225 0.48927,3.5271 1.21484,5.15668 0.7012,1.68538 0.55985,3.53811 0.95899,5.29297 0.37195,2.11432 0.84398,4.22839 1.29971,6.28941 0.27795,1.07753 0.85617,2.05937 0.89691,3.19484 0.0592,1.12014 0.98431,1.90967 1.15136,3.00403 0.27146,1.33295 0.89299,2.58836 0.861,3.97657 0.0115,1.08262 0.13734,2.20992 0.61971,3.22488 0.37359,1.23694 1.12449,2.33722 1.23997,3.64894 0.16114,0.99125 0.49023,1.98931 1.23238,2.69535 0.7601,1.23296 0.23791,2.72433 0.26699,4.07151 0.064,0.7629 -0.75391,1.36102 -1.4407,0.97185 -0.78824,-0.32695 -1.41273,-0.95377 -2.23671,-1.21019 -1.45962,-0.9118 -1.43015,-2.85771 -1.27302,-4.36901 0.22756,-1.72978 0.37634,-3.49725 -0.0298,-5.21752 -0.15861,-1.28632 -0.44843,-2.55814 -1.12969,-3.67661 -0.74163,-1.45355 -1.48468,-2.90336 -2.421,-4.24272 -0.8342,-1.69278 -1.28834,-3.55621 -2.18164,-5.22851 -1.8623,-3.66214 -3.20333,-7.55955 -4.47902,-11.45405 -0.81548,-1.96417 -1.85552,-3.86791 -2.2202,-5.98541 -0.66133,-1.72482 -1.75635,-3.31974 -1.9088,-5.20858 -0.40802,-2.05283 -0.83753,-4.10838 -1.51503,-6.0922 0.0706,-1.44575 0.94806,-2.70139 1.73796,-3.85802 1.21292,-1.66906 1.9702,-3.60318 2.99747,-5.38383 0.70681,-1.19892 1.11247,-2.76937 2.48527,-3.39682 0.0964,0.13021 0.19271,0.26042 0.28906,0.39062 z"
         sodipodi:nodetypes="scccccccccccccccccccccccccccccccccccccccccccccccccccccccccccccccccccccccccccccccccccccccccccccccccccccccccccccccccccccccccccccccccccccccccccccccccccccccccccccccccccccccccccccccccccccccccccccccccccccccccccccccccccccccccccccccccccccccccccccccccccccccccccccccccccccccccccccccccccccccccccccccccccccccccccccccccccccccccccccccccccccccccccccccccccccccccccccccccccccccccccccccccccccccccccccccccccccccccccccccccccccccccccccccccccccccccccccccccccsscccccccccccccccccccccccccccccccccccccccccccccccccccccccccccccccccccccccccccccccccccccccccccccccccccccccccccc" />
    </g>
  </g>
</svg>
